<?xml version="1.0" encoding="UTF-8"?>
<svg version="1.1" xmlns="http://www.w3.org/2000/svg" width="209" height="84">
<path d="M0 0 C68.97 0 137.94 0 209 0 C209 27.72 209 55.44 209 84 C140.03 84 71.06 84 0 84 C0 56.28 0 28.56 0 0 Z " fill="#FDFCFB" transform="translate(0,0)"/>
<path d="M0 0 C3.66651247 -0.08796382 7.33274918 -0.14071247 11 -0.1875 C12.54494141 -0.22520508 12.54494141 -0.22520508 14.12109375 -0.26367188 C20.70161116 -0.32654306 27.44118231 -0.32573665 32.55444336 4.45263672 C37.05913935 9.69605514 37.34586518 13.27167951 37.28125 20.0078125 C36.90571585 24.00307863 35.79087014 26.13370094 33 29 C30.25 30.375 30.25 30.375 28 31 C28.68824551 33.01920536 28.68824551 33.01920536 30 35 C32.04194619 35.80462488 32.04194619 35.80462488 34.375 36.0625 C38.49985893 36.67640041 39.34135962 37.25601972 43 40 C43.33 26.8 43.66 13.6 44 0 C47.63 0 51.26 0 55 0 C55.00410889 1.05388916 55.00821777 2.10777832 55.01245117 3.19360352 C55.03433145 7.12833619 55.0887115 11.06208145 55.15258789 14.99633789 C55.17569081 16.69448333 55.19014545 18.39277049 55.19555664 20.09106445 C55.20490339 22.54206873 55.24601291 24.99086784 55.29296875 27.44140625 C55.2890361 28.19273331 55.28510345 28.94406036 55.28105164 29.71815491 C55.44064298 35.56960564 57.27831393 38.50652378 61 43 C62.63846904 40.54229643 63.53795537 38.80907504 64.49633789 36.09521484 C64.77324966 35.3178598 65.05016144 34.54050476 65.33546448 33.73959351 C65.62823776 32.90513702 65.92101105 32.07068054 66.22265625 31.2109375 C66.52819931 30.35190826 66.83374237 29.49287903 67.14854431 28.6078186 C68.12376818 25.86491285 69.09358469 23.12013999 70.0625 20.375 C71.03542945 17.62288306 72.00955661 14.87121577 72.98716736 12.12075806 C73.59545413 10.40901944 74.20096078 8.69628996 74.80348206 6.98251343 C76.88767911 1.11232089 76.88767911 1.11232089 78 0 C81.99984478 -0.14346646 85.99829982 -0.04212316 90 0 C94.0199522 9.28241501 97.47096275 18.71003868 100.8125 28.25 C101.31934895 29.6889122 101.82650864 31.12771498 102.33398438 32.56640625 C103.55956195 36.0430212 104.78097144 39.52108249 106 43 C106.33 40.69 106.66 38.38 107 36 C108.98 36 110.96 36 113 36 C113 24.12 113 12.24 113 0 C123 0 123 0 125.69580078 2.38671875 C126.35563965 3.47597656 127.01547852 4.56523437 127.6953125 5.6875 C128.05849579 6.26459717 128.42167908 6.84169434 128.79586792 7.4362793 C129.94041895 9.27192858 131.03211414 11.1332276 132.125 13 C132.89513961 14.25463451 133.66854858 15.50726839 134.4453125 16.7578125 C136.34269751 19.81471057 138.1654806 22.90132222 140 26 C140.33 17.42 140.66 8.84 141 0 C144.63 0 148.26 0 152 0 C152.217256 6.88636823 152.41407827 13.77290447 152.59204102 20.66040039 C152.65544235 23.00300683 152.72441093 25.34546953 152.79907227 27.68774414 C152.90546605 31.05592848 152.99178222 34.42412341 153.07421875 37.79296875 C153.1302552 39.36198189 153.1302552 39.36198189 153.18742371 40.96269226 C153.37386786 49.99273763 153.37386786 49.99273763 150 54 C149.01 54.99 149.01 54.99 148 56 C149.65 58.97 151.3 61.94 153 65 C149.8125 65.4375 149.8125 65.4375 146 65 C143.82857115 62.9521921 142.31305984 60.67452741 141 58 C141 57.34 141 56.68 141 56 C140.01 56 139.02 56 138 56 C138 58.97 138 61.94 138 65 C135.69 65 133.38 65 131 65 C131 55.43 131 45.86 131 36 C131.66 35.67 132.32 35.34 133 35 C130.36 31.04 127.72 27.08 125 23 C124.67 27.29 124.34 31.58 124 36 C124.99 36 125.98 36 127 36 C127 37.98 127 39.96 127 42 C122.71 42 118.42 42 114 42 C114 43.65 114 45.3 114 47 C117.63 47 121.26 47 125 47 C125 48.98 125 50.96 125 53 C121.37 53 117.74 53 114 53 C114 54.98 114 56.96 114 59 C118.29 59 122.58 59 127 59 C127 60.98 127 62.96 127 65 C120.4 65 113.8 65 107 65 C107 59.72 107 54.44 107 49 C105.35 49 103.7 49 102 49 C102 54.28 102 59.56 102 65 C96 65 96 65 94.40087891 63.62304688 C93.81959229 62.68041992 93.81959229 62.68041992 93.2265625 61.71875 C92.57880859 60.70361328 92.57880859 60.70361328 91.91796875 59.66796875 C91.27794922 58.59482422 91.27794922 58.59482422 90.625 57.5 C90.17511719 56.78457031 89.72523438 56.06914063 89.26171875 55.33203125 C88.15534209 53.56653659 87.07508324 51.78472316 86 50 C85.67 54.95 85.34 59.9 85 65 C83.02 65 81.04 65 79 65 C79 56.75 79 48.5 79 40 C77.68 40.33 76.36 40.66 75 41 C74.67 48.92 74.34 56.84 74 65 C72.02 65 70.04 65 68 65 C65.734375 62.734375 65.734375 62.734375 63.75 59.75 C63.08484375 58.77546875 62.4196875 57.8009375 61.734375 56.796875 C60 54 60 54 58 50 C57.67 54.95 57.34 59.9 57 65 C54.69 65 52.38 65 50 65 C50 59.72 50 54.44 50 49 C48.68 49 47.36 49 46 49 C45.98582031 49.58007812 45.97164062 50.16015625 45.95703125 50.7578125 C45.58452025 56.8589386 44.38435075 59.72258464 40 64 C35.98901862 66.00549069 31.33711008 65.76357572 27 65 C23.33209552 62.35882554 21.41388406 59.24165219 20 55 C20.03103887 52.72851879 20.09805647 50.45743175 20.1875 48.1875 C20.34071134 42.4112715 20.34071134 42.4112715 18.25 37.1875 C16.06018662 35.05851477 15.01471257 34.21533661 12 34 C12 34.99 12 35.98 12 37 C13.65 37.33 15.3 37.66 17 38 C16.34 39.98 15.68 41.96 15 44 C12.03 43.67 9.06 43.34 6 43 C3.29594218 46.35303169 2.80462208 48.5820604 3.25 52.75 C3.50521474 55.66855924 3.50521474 55.66855924 5 58 C6.85287502 58.07226502 8.70833878 58.0838122 10.5625 58.0625 C11.57441406 58.05347656 12.58632813 58.04445312 13.62890625 58.03515625 C14.41136719 58.02355469 15.19382812 58.01195312 16 58 C16.33 59.65 16.66 61.3 17 63 C12.5370055 65.97532967 8.23256246 65.61379032 3 65 C-1.3811842 62.62685856 -3.331038 59.65552557 -5 55 C-5.72392661 50.16205143 -5.72827075 47.12430087 -3.00708008 42.92333984 C-0.48535898 38.58852607 -0.39803618 34.713017 -0.390625 29.78515625 C-0.37408875 28.92941513 -0.35755249 28.07367401 -0.34051514 27.19200134 C-0.29226742 24.48209287 -0.27071647 21.77274457 -0.25 19.0625 C-0.2218208 17.21546696 -0.19189066 15.36845975 -0.16015625 13.52148438 C-0.08651505 9.01436909 -0.036799 4.50756054 0 0 Z " fill="#F89D14" transform="translate(50,10)"/>
<path d="M0 0 C4.02069425 -0.08765069 8.0411401 -0.14061018 12.0625 -0.1875 C13.7630957 -0.22520508 13.7630957 -0.22520508 15.49804688 -0.26367188 C23.16162941 -0.33070029 27.94850947 0.40289068 34.4375 4.5625 C36.95298249 8.48665268 36.62317688 12.47646899 36 17 C34.61451845 20.02286884 33.33128575 21.66871425 31 24 C31.969375 24.78375 32.93875 25.5675 33.9375 26.375 C36.43624869 28.3952649 37.83396989 29.63909744 38.23828125 32.953125 C38.41729051 38.4929906 37.8033356 41.66842335 34 46 C30.9744375 48.08007422 29.85524891 48 26 48 C26.0825 48.825 26.165 49.65 26.25 50.5 C25.86006533 55.9590854 23.87415131 60.23609288 19.875 64 C15.55011303 65.50430851 11.52390543 65.66965705 7 65 C2.84207114 62.66116501 1.45683462 60.4436781 0 56 C-0.24050903 53.27275085 -0.24050903 53.27275085 -0.22705078 50.29174805 C-0.22689972 49.17096359 -0.22674866 48.05017914 -0.22659302 46.89543152 C-0.21627045 45.6963063 -0.20594788 44.49718109 -0.1953125 43.26171875 C-0.1924826 42.02581497 -0.18965271 40.78991119 -0.18673706 39.51655579 C-0.17745218 36.24335003 -0.15950633 32.97034356 -0.1373291 29.69720459 C-0.11680817 26.35219152 -0.10789268 23.00716974 -0.09765625 19.66210938 C-0.07561795 13.10799526 -0.04215661 6.55401392 0 0 Z " fill="#FC9E12" transform="translate(5,10)"/>
<path d="M0 0 C10 0 10 0 12.69580078 2.38671875 C13.68555908 4.02060547 13.68555908 4.02060547 14.6953125 5.6875 C15.05849579 6.26459717 15.42167908 6.84169434 15.79586792 7.4362793 C16.94041895 9.27192858 18.03211414 11.1332276 19.125 13 C19.89513961 14.25463451 20.66854858 15.50726839 21.4453125 16.7578125 C23.34269751 19.81471057 25.1654806 22.90132222 27 26 C27.33 17.42 27.66 8.84 28 0 C31.63 0 35.26 0 39 0 C39.217256 6.88636823 39.41407827 13.77290447 39.59204102 20.66040039 C39.65544235 23.00300683 39.72441093 25.34546953 39.79907227 27.68774414 C39.90546605 31.05592848 39.99178222 34.42412341 40.07421875 37.79296875 C40.11157639 38.83897751 40.14893402 39.88498627 40.18742371 40.96269226 C40.37386786 49.99273763 40.37386786 49.99273763 37 54 C36.34 54.66 35.68 55.32 35 56 C36.65 58.97 38.3 61.94 40 65 C36.8125 65.4375 36.8125 65.4375 33 65 C30.82857115 62.9521921 29.31305984 60.67452741 28 58 C28 57.34 28 56.68 28 56 C27.01 56 26.02 56 25 56 C25 58.97 25 61.94 25 65 C22.69 65 20.38 65 18 65 C18 55.43 18 45.86 18 36 C18.99 35.505 18.99 35.505 20 35 C17.36 31.04 14.72 27.08 12 23 C11.67 27.29 11.34 31.58 11 36 C11.99 36 12.98 36 14 36 C14 37.98 14 39.96 14 42 C9.71 42 5.42 42 1 42 C1 43.65 1 45.3 1 47 C4.63 47 8.26 47 12 47 C12 48.98 12 50.96 12 53 C8.37 53 4.74 53 1 53 C1 54.98 1 56.96 1 59 C5.29 59 9.58 59 14 59 C14 60.98 14 62.96 14 65 C7.4 65 0.8 65 -6 65 C-6 55.43 -6 45.86 -6 36 C-4.02 36 -2.04 36 0 36 C0 24.12 0 12.24 0 0 Z " fill="#FD9E0F" transform="translate(163,10)"/>
<path d="M0 0 C3.66651247 -0.08796382 7.33274918 -0.14071247 11 -0.1875 C12.54494141 -0.22520508 12.54494141 -0.22520508 14.12109375 -0.26367188 C20.70161116 -0.32654306 27.44118231 -0.32573665 32.55444336 4.45263672 C37.05913935 9.69605514 37.34586518 13.27167951 37.28125 20.0078125 C36.90571585 24.00307863 35.79087014 26.13370094 33 29 C30.25 30.375 30.25 30.375 28 31 C28.66 32.65 29.32 34.3 30 36 C29.51789063 36.33773437 29.03578125 36.67546875 28.5390625 37.0234375 C27.90742187 37.46945313 27.27578125 37.91546875 26.625 38.375 C25.99851562 38.81585938 25.37203125 39.25671875 24.7265625 39.7109375 C22.87619491 41.02808866 22.87619491 41.02808866 21 43 C20.68546875 42.43410156 20.3709375 41.86820313 20.046875 41.28515625 C19.61890625 40.55167969 19.1909375 39.81820312 18.75 39.0625 C18.12351562 37.96615234 18.12351562 37.96615234 17.484375 36.84765625 C15.74406383 34.68142682 14.70438996 34.36405249 12 34 C12 34.99 12 35.98 12 37 C13.65 37.33 15.3 37.66 17 38 C16.34 39.98 15.68 41.96 15 44 C12.03 43.67 9.06 43.34 6 43 C3.29594218 46.35303169 2.80462208 48.5820604 3.25 52.75 C3.50521474 55.66855924 3.50521474 55.66855924 5 58 C6.85287502 58.07226502 8.70833878 58.0838122 10.5625 58.0625 C11.57441406 58.05347656 12.58632813 58.04445312 13.62890625 58.03515625 C14.41136719 58.02355469 15.19382812 58.01195312 16 58 C16.33 59.65 16.66 61.3 17 63 C12.5370055 65.97532967 8.23256246 65.61379032 3 65 C-1.3811842 62.62685856 -3.331038 59.65552557 -5 55 C-5.72392661 50.16205143 -5.72827075 47.12430087 -3.00708008 42.92333984 C-0.48535898 38.58852607 -0.39803618 34.713017 -0.390625 29.78515625 C-0.37408875 28.92941513 -0.35755249 28.07367401 -0.34051514 27.19200134 C-0.29226742 24.48209287 -0.27071647 21.77274457 -0.25 19.0625 C-0.2218208 17.21546696 -0.19189066 15.36845975 -0.16015625 13.52148438 C-0.08651505 9.01436909 -0.036799 4.50756054 0 0 Z " fill="#FD9F10" transform="translate(50,10)"/>
<path d="M0 0 C3.63 0 7.26 0 11 0 C10.9779248 1.01199463 10.95584961 2.02398926 10.93310547 3.06665039 C9.52192988 27.70564493 9.52192988 27.70564493 19.84765625 48.984375 C20.55792969 49.64953125 21.26820312 50.3146875 22 51 C22.33 46.38 22.66 41.76 23 37 C24.98 37 26.96 37 29 37 C29 46.24 29 55.48 29 65 C27.35 65 25.7 65 24 65 C21.83203125 62.734375 21.83203125 62.734375 19.8125 59.75 C19.13832031 58.77546875 18.46414062 57.8009375 17.76953125 56.796875 C16 54 16 54 14 50 C13.67 54.95 13.34 59.9 13 65 C10.69 65 8.38 65 6 65 C6 59.72 6 54.44 6 49 C4.68 49 3.36 49 2 49 C1.97873047 49.87011719 1.97873047 49.87011719 1.95703125 50.7578125 C1.58452025 56.8589386 0.38435075 59.72258464 -4 64 C-8.01098138 66.00549069 -12.66288992 65.76357572 -17 65 C-20.66790448 62.35882554 -22.58611594 59.24165219 -24 55 C-24.52438572 50.00544092 -24.55003096 46.12043344 -22.3125 41.5625 C-18.89992479 37.78099774 -16.68105326 36.18338763 -11.5625 35.625 C-7.55209788 36.04714759 -3.9363996 37.0636004 -1 40 C-0.67 26.8 -0.34 13.6 0 0 Z " fill="#F49A12" transform="translate(94,10)"/>
<path d="M0 0 C3.51223473 2.34148982 5.00016463 4.04121364 6.8125 7.875 C7.67127831 13.8092546 7.29027655 18.83822017 3.8125 23.875 C1.49287074 26.62955974 -0.2075323 27.68798326 -3.74609375 28.36328125 C-7.74945346 28.64031157 -10.8683668 28.83809531 -14.19921875 26.40625 C-18.59805501 21.37900857 -19.54548678 16.96299131 -19.46875 10.3828125 C-18.93203414 5.5970961 -16.49607166 2.93600405 -12.875 0 C-8.27350314 -1.92620799 -4.65699118 -1.64364395 0 0 Z " fill="#0A0908" transform="translate(89.1875,47.125)"/>
<path d="M0 0 C4.13330649 1.78483689 6.82576266 4.05416187 9 8 C9.80545341 14.37203145 9.96589969 20.66654869 6 26 C2.21568446 29.44028686 -1.71595276 29.51227536 -6.625 29.3515625 C-10.08089231 28.83999949 -11.73468427 27.61927131 -14 25 C-16.64947439 19.48341582 -16.93635653 14.00696519 -16 8 C-12.22716049 1.18342801 -7.68289647 -0.81417978 0 0 Z " fill="#080604" transform="translate(21,46)"/>
<path d="M0 0 C15.89655172 0 15.89655172 0 20.875 4.8125 C22.39977526 7.77734078 22.40388958 9.70156847 22 13 C20.58488907 15.83022185 19.23416175 17.76583825 17 20 C18.65 22.97 20.3 25.94 22 29 C18.8125 29.4375 18.8125 29.4375 15 29 C12.82857115 26.9521921 11.31305984 24.67452741 10 22 C10 21.34 10 20.68 10 20 C9.01 20 8.02 20 7 20 C7 22.97 7 25.94 7 29 C4.69 29 2.38 29 0 29 C0 19.43 0 9.86 0 0 Z " fill="#0D0B09" transform="translate(181,46)"/>
<path d="M0 0 C2.31 0 4.62 0 7 0 C7 9.57 7 19.14 7 29 C1 29 1 29 -0.59912109 27.62304688 C-0.98664551 26.99462891 -1.37416992 26.36621094 -1.7734375 25.71875 C-2.20527344 25.04199219 -2.63710937 24.36523438 -3.08203125 23.66796875 C-3.50871094 22.95253906 -3.93539062 22.23710938 -4.375 21.5 C-4.82488281 20.78457031 -5.27476562 20.06914063 -5.73828125 19.33203125 C-6.84465791 17.56653659 -7.92491676 15.78472316 -9 14 C-9.33 18.95 -9.66 23.9 -10 29 C-11.98 29 -13.96 29 -16 29 C-16 19.76 -16 10.52 -16 1 C-14.02 1 -12.04 1 -10 1 C-8.03474425 3.18762413 -6.63224623 5.03406315 -5.125 7.5 C-4.7228125 8.12003906 -4.320625 8.74007812 -3.90625 9.37890625 C-2.91868699 10.90727758 -1.95676686 12.45216384 -1 14 C-0.67 9.38 -0.34 4.76 0 0 Z " fill="#0C0906" transform="translate(145,46)"/>
<path d="M0 0 C1.98 0 3.96 0 6 0 C7.96938498 2.36085294 9.38172633 4.36899401 10.875 7 C11.2771875 7.66773438 11.679375 8.33546875 12.09375 9.0234375 C13.08210073 10.67068871 14.04371066 12.33393145 15 14 C15.33 9.38 15.66 4.76 16 0 C17.98 0 19.96 0 22 0 C22 9.24 22 18.48 22 28 C20.35 28 18.7 28 17 28 C14.83203125 25.734375 14.83203125 25.734375 12.8125 22.75 C12.13832031 21.77546875 11.46414062 20.8009375 10.76953125 19.796875 C9 17 9 17 7 13 C6.67 17.95 6.34 22.9 6 28 C4.02 28 2.04 28 0 28 C0 18.76 0 9.52 0 0 Z " fill="#030303" transform="translate(101,47)"/>
<path d="M0 0 C6.6 0 13.2 0 20 0 C20 1.98 20 3.96 20 6 C15.71 6 11.42 6 7 6 C7 7.65 7 9.3 7 11 C10.63 11 14.26 11 18 11 C18 12.98 18 14.96 18 17 C14.37 17 10.74 17 7 17 C7 18.98 7 20.96 7 23 C11.29 23 15.58 23 20 23 C20 24.98 20 26.96 20 29 C13.4 29 6.8 29 0 29 C0 19.43 0 9.86 0 0 Z " fill="#16130E" transform="translate(157,46)"/>
<path d="M0 0 C0.66 0.33 1.32 0.66 2 1 C1.34 2.98 0.68 4.96 0 7 C-2.97 6.67 -5.94 6.34 -9 6 C-11.70405782 9.35303169 -12.19537792 11.5820604 -11.75 15.75 C-11.49478526 18.66855924 -11.49478526 18.66855924 -10 21 C-8.14712498 21.07226502 -6.29166122 21.0838122 -4.4375 21.0625 C-3.42558594 21.05347656 -2.41367187 21.04445313 -1.37109375 21.03515625 C-0.58863281 21.02355469 0.19382812 21.01195313 1 21 C1.33 22.65 1.66 24.3 2 26 C-2.4629945 28.97532967 -6.76743754 28.61379032 -12 28 C-16.3811842 25.62685856 -18.331038 22.65552557 -20 18 C-20.69928486 13.32673043 -20.51458704 9.3590942 -18.3125 5.125 C-13.40006671 -1.51342336 -7.62924119 -2.5430804 0 0 Z " fill="#0F0D0B" transform="translate(65,47)"/>
<path d="M0 0 C9.26923077 0 9.26923077 0 14 3 C15.42041821 5.84083641 15.31452272 7.85477278 15 11 C12.76793569 13.84780619 11.45007001 14.84997666 8 16 C5.36 16 2.72 16 0 16 C0 10.72 0 5.44 0 0 Z " fill="#FEF6EB" transform="translate(61,19)"/>
<path d="M0 0 C3.06846449 0.37420299 3.67367473 0.93691864 5.5625 3.3125 C6.80627933 7.51615926 6.97739902 11.2061026 5.4375 15.3125 C3.5625 17.3125 3.5625 17.3125 1.125 18.375 C-1.4375 18.3125 -1.4375 18.3125 -3.6875 16.8125 C-5.95993435 13.56616522 -6.29919579 11.25417007 -6.4375 7.3125 C-5.32045506 3.44580599 -4.31713051 0.55347827 0 0 Z " fill="#EEEEEE" transform="translate(17.4375,51.6875)"/>
<path d="M0 0 C3 0.5 3 0.5 4.875 1.9375 C6.56730912 5.7922041 6.54726039 9.35754289 6 13.5 C4.875 16.0625 4.875 16.0625 3 17.5 C0 18 0 18 -3 17.5 C-5.35101344 15.69755636 -5.89686881 14.28064581 -6.28125 11.37109375 C-6.4206966 7.84425691 -6.30326835 5.19077791 -4.875 1.9375 C-3 0.5 -3 0.5 0 0 Z " fill="#F8F7F5" transform="translate(83,51.5)"/>
<path d="M0 0 C10.625 -0.25 10.625 -0.25 14 2 C14.375 5.5 14.375 5.5 14 9 C9.43362969 12.04424687 5.43284541 11.12783166 0 11 C0 7.37 0 3.74 0 0 Z " fill="#FFFCF8" transform="translate(16,19)"/>
<path d="M0 0 C2.10388569 -0.05402274 4.20816714 -0.09280256 6.3125 -0.125 C8.07013672 -0.15980469 8.07013672 -0.15980469 9.86328125 -0.1953125 C13 0 13 0 16 2 C16.3125 5 16.3125 5 16 8 C14 10 14 10 11.9375 10.3125 C7.7346596 9.86538932 3.95438964 8.4473583 0 7 C0 4.69 0 2.38 0 0 Z " fill="#FDFBF9" transform="translate(16,39)"/>
<path d="M0 0 C0.66 0 1.32 0 2 0 C2.83679277 2.62394306 3.66956942 5.24904384 4.5 7.875 C4.73847656 8.62136719 4.97695312 9.36773437 5.22265625 10.13671875 C7 15.7734375 7 15.7734375 7 18 C3.04 18 -0.92 18 -5 18 C-3.72520789 11.8221613 -2.1079151 5.94432058 0 0 Z " fill="#FEF2E0" transform="translate(133,24)"/>
<path d="M0 0 C3.375 -0.125 3.375 -0.125 7 0 C9 2 9 2 9.25 4.5 C9 7 9 7 7 9 C3.375 9.125 3.375 9.125 0 9 C0 6.03 0 3.06 0 0 Z " fill="#CE8F30" transform="translate(187,52)"/>
<path d="M0 0 C2.5625 0.3125 2.5625 0.3125 4.375 1.5625 C5.5625 3.3125 5.5625 3.3125 5.5625 7.3125 C1.9325 7.3125 -1.6975 7.3125 -5.4375 7.3125 C-4.07960526 0.52302632 -4.07960526 0.52302632 0 0 Z " fill="#F89A0C" transform="translate(17.4375,51.6875)"/>
<path d="M0 0 C2.31 0 4.62 0 7 0 C7.28780586 3.05074215 7.45787911 5.96183742 7 9 C4.5 11.0625 4.5 11.0625 2 12 C2 8 2 8 3 6 C2.01 6 1.02 6 0 6 C0 4.02 0 2.04 0 0 Z " fill="#120C03" transform="translate(34,45)"/>
<path d="M0 0 C1.32 0 2.64 0 4 0 C5.32 2.31 6.64 4.62 8 7 C4.37 7 0.74 7 -3 7 C-2 2 -2 2 0 0 Z " fill="#F69A10" transform="translate(80,52)"/>
<path d="M0 0 C0.78375 0.04125 1.5675 0.0825 2.375 0.125 C2.375 2.435 2.375 4.745 2.375 7.125 C-0.595 7.125 -3.565 7.125 -6.625 7.125 C-4.07142857 0.19387755 -4.07142857 0.19387755 0 0 Z " fill="#FA9B0C" transform="translate(58.625,51.875)"/>
<path d="M0 0 C3.3 0 6.6 0 10 0 C10 1.65 10 3.3 10 5 C6.7 5 3.4 5 0 5 C0 3.35 0 1.7 0 0 Z " fill="#FC9F12" transform="translate(164,52)"/>
<path d="M0 0 C1.98 0 3.96 0 6 0 C7.99785435 4.1205746 8.17835515 7.45194365 8 12 C4.78119883 8.2064129 2.3836813 4.34170523 0 0 Z " fill="#F7F3EC" transform="translate(137,50)"/>
<path d="M0 0 C1.62276158 2.43414237 2.61744792 4.31319446 3.625 7 C3.88539063 7.680625 4.14578125 8.36125 4.4140625 9.0625 C5 11 5 11 5 14 C3.35 14 1.7 14 0 14 C0 9.38 0 4.76 0 0 Z " fill="#FEA41C" transform="translate(152,45)"/>
<path d="M0 0 C0.66 0 1.32 0 2 0 C2.33 4.95 2.66 9.9 3 15 C-2.30769231 9.69230769 -2.30769231 9.69230769 -3 7 C-1.625 3.25 -1.625 3.25 0 0 Z " fill="#F5A937" transform="translate(114,47)"/>
<path d="M0 0 C1.37562854 1.28965176 2.70766393 2.62689293 4 4 C4 4.66 4 5.32 4 6 C4.99 6.33 5.98 6.66 7 7 C4.69 7 2.38 7 0 7 C0 4.69 0 2.38 0 0 Z " fill="#FDFBF8" transform="translate(188,53)"/>
<path d="M0 0 C2.375 0.25 2.375 0.25 5 1 C6.3125 3.0625 6.3125 3.0625 7 5 C4.69 4.34 2.38 3.68 0 3 C0 2.01 0 1.02 0 0 Z " fill="#F5F3F0" transform="translate(62,44)"/>
</svg>
